<svg width="38" height="38" viewBox="0 0 38 38" fill="none" xmlns="http://www.w3.org/2000/svg">
<rect width="38" height="38" fill="#EE638C"/>
<path fill-rule="evenodd" clip-rule="evenodd" d="M29.6196 8.38042C30.2379 8.99875 30.2379 10.0013 29.6196 10.6196L10.6196 29.6196C10.0012 30.2379 8.99873 30.2379 8.3804 29.6196C7.76207 29.0013 7.76207 27.9987 8.3804 27.3804L27.3804 8.38042C27.9987 7.76209 29.0012 7.76209 29.6196 8.38042Z" fill="white"/>
<path fill-rule="evenodd" clip-rule="evenodd" d="M8.3804 8.38042C8.99873 7.76209 10.0012 7.76209 10.6196 8.38042L29.6196 27.3804C30.2379 27.9987 30.2379 29.0013 29.6196 29.6196C29.0012 30.2379 27.9987 30.2379 27.3804 29.6196L8.3804 10.6196C7.76207 10.0013 7.76207 8.99875 8.3804 8.38042Z" fill="white"/>
</svg>
