<svg width="219" height="204" viewBox="0 0 219 204" fill="none" xmlns="http://www.w3.org/2000/svg">
<g clip-path="url(#clip0)">
<path d="M83.95 176.8C81.9343 176.8 80.3 175.278 80.3 173.4V47.6C80.3 45.7224 81.9343 44.2 83.95 44.2C85.9657 44.2 87.6 45.7224 87.6 47.6V173.4C87.6 175.278 85.9657 176.8 83.95 176.8Z" fill="#4A4A4A"/>
<path d="M69.35 68H98.55V156.4H69.35V68Z" fill="#EE638C"/>
<path d="M135.05 163.2C133.034 163.2 131.4 161.678 131.4 159.8V34C131.4 32.1223 133.034 30.6 135.05 30.6C137.066 30.6 138.7 32.1223 138.7 34V159.8C138.7 161.678 137.066 163.2 135.05 163.2Z" fill="#4A4A4A"/>
<path d="M120.45 54.4H149.65V142.8H120.45V54.4Z" fill="#8CB28C"/>
<path d="M186.15 204C184.134 204 182.5 202.478 182.5 200.6V74.8C182.5 72.9224 184.134 71.4 186.15 71.4C188.166 71.4 189.8 72.9224 189.8 74.8V200.6C189.8 202.478 188.166 204 186.15 204Z" fill="#4A4A4A"/>
<path d="M171.55 95.2H200.75V183.6H171.55V95.2Z" fill="#EE638C"/>
<path d="M32.85 132.6C30.8343 132.6 29.2 131.078 29.2 129.2V3.4C29.2 1.52236 30.8343 0 32.85 0C34.8657 0 36.5 1.52236 36.5 3.4V129.2C36.5 131.078 34.8657 132.6 32.85 132.6Z" fill="#4A4A4A"/>
<path d="M18.25 23.8H47.45V112.2H18.25V23.8Z" fill="#8CB28C"/>
</g>
<defs>
<clipPath id="clip0">
<rect width="219" height="204" fill="white"/>
</clipPath>
</defs>
</svg>
