<svg width="201" height="224" viewBox="0 0 201 224" fill="none" xmlns="http://www.w3.org/2000/svg">
<path d="M59.1069 63.2402C58.5907 63.2402 58.0677 63.091 57.5915 62.7764L20.4784 38.2952C19.0616 37.3608 18.5928 35.3233 19.4314 33.7444C20.2703 32.1659 22.0982 31.6435 23.515 32.5776L60.6281 57.0587C62.045 57.9932 62.5137 60.0307 61.6751 61.6096C61.1185 62.6574 60.1256 63.2402 59.1069 63.2402Z" fill="#444966"/>
<path d="M59.1097 63.2398H18.7817C17.1352 63.2398 15.8008 61.7527 15.8008 59.9178C15.8008 58.083 17.1356 56.5959 18.7817 56.5959H59.1101C60.7565 56.5959 62.0909 58.083 62.0909 59.9178C62.0909 61.7527 60.7561 63.2398 59.1097 63.2398Z" fill="#444966"/>
<path d="M134.534 146.927L81.6409 59.9178L101.981 27.1762C106.24 20.3201 101.837 10.955 94.3546 10.955H46.3961C38.9139 10.955 34.5108 20.3201 38.7698 27.1762L59.1097 59.9178L6.21687 146.927C2.16546 153.591 0 161.456 0 169.506C0 191.74 16.1734 209.764 36.1239 209.764H104.627C124.578 209.764 140.751 191.74 140.751 169.506C140.751 161.456 138.585 153.591 134.534 146.927Z" fill="#48CFB7"/>
<path d="M134.534 146.927L81.6409 59.9178L101.981 27.1762C106.24 20.3201 101.837 10.955 94.3546 10.955H85.6613C92.4541 10.955 96.4517 20.3201 92.5852 27.1762L74.1191 59.9178L122.139 146.927C125.817 153.591 127.783 161.457 127.783 169.506C127.783 191.74 113.1 209.764 94.9874 209.764H104.627C124.578 209.764 140.751 191.74 140.751 169.506C140.751 161.456 138.585 153.591 134.534 146.927Z" fill="#35B5A0"/>
<path d="M84.0624 63.2398H55.8427C54.1962 63.2398 52.8618 61.7527 52.8618 59.9178C52.8618 58.083 54.1966 56.5959 55.8427 56.5959H84.0624C85.7088 56.5959 87.0432 58.083 87.0432 59.9178C87.0432 61.7527 85.7088 63.2398 84.0624 63.2398Z" fill="#2E344C"/>
<path d="M154.316 108.993C128.574 108.993 107.632 132.332 107.632 161.019C107.632 189.706 128.574 213.045 154.316 213.045C180.058 213.045 201 189.706 201 161.019C201 132.332 180.058 108.993 154.316 108.993Z" fill="#FCAB29"/>
<path d="M179.851 117.488C188.783 126.97 194.358 140.347 194.358 155.148C194.358 183.835 173.415 207.174 147.674 207.174C138.255 207.174 129.481 204.046 122.138 198.679C130.519 207.576 141.855 213.045 154.316 213.045C180.058 213.045 201 189.706 201 161.019C201 142.828 192.577 126.791 179.851 117.488Z" fill="#DD8D19"/>
<path d="M154.315 196.092C171.697 196.092 185.788 180.389 185.788 161.017C185.788 141.646 171.697 125.943 154.315 125.943C136.933 125.943 122.842 141.646 122.842 161.017C122.842 180.389 136.933 196.092 154.315 196.092Z" fill="#F2DF33"/>
<path d="M158.223 157.738H150.408C148.235 157.738 146.467 155.768 146.467 153.346C146.467 150.925 148.235 148.955 150.408 148.955H161.868C163.494 148.955 164.813 147.486 164.813 145.673C164.813 143.861 163.494 142.392 161.868 142.392H157.26V138.968C157.26 137.155 155.942 135.687 154.316 135.687C152.69 135.687 151.371 137.155 151.371 138.968V142.392H150.408C144.988 142.392 140.579 147.306 140.579 153.346C140.579 159.387 144.988 164.3 150.408 164.3H158.223C160.396 164.3 162.164 166.271 162.164 168.692C162.164 171.113 160.396 173.083 158.223 173.083H146.763C145.137 173.083 143.819 174.552 143.819 176.365C143.819 178.177 145.137 179.646 146.763 179.646H151.372V183.07C151.372 184.883 152.69 186.351 154.316 186.351C155.942 186.351 157.261 184.883 157.261 183.07V179.646H158.224C163.644 179.646 168.053 174.732 168.053 168.692C168.053 162.652 163.643 157.738 158.223 157.738Z" fill="#FCAB29"/>
<path d="M144.731 63.1146L137.647 56.7985C137.639 56.7915 137.63 56.7875 137.623 56.7805C137.499 56.672 137.369 56.5736 137.23 56.4883C137.227 56.487 137.225 56.4848 137.222 56.483C137.089 56.4016 136.949 56.3347 136.804 56.2765C136.785 56.2686 136.765 56.2599 136.746 56.2525C136.609 56.2017 136.469 56.1619 136.325 56.1335C136.3 56.1286 136.274 56.1247 136.249 56.1208C136.105 56.0963 135.958 56.0801 135.808 56.0801C135.658 56.0801 135.511 56.0967 135.367 56.1208C135.341 56.1251 135.316 56.1286 135.291 56.1335C135.147 56.1619 135.006 56.2017 134.871 56.2525C134.851 56.2599 134.831 56.2686 134.812 56.2765C134.667 56.3343 134.527 56.4016 134.394 56.483C134.391 56.4848 134.389 56.487 134.386 56.4883C134.248 56.5736 134.117 56.6725 133.993 56.7805C133.985 56.7875 133.977 56.7915 133.969 56.7985L126.885 63.1146C125.615 64.2469 125.409 66.3115 126.425 67.7268C127.441 69.1412 129.293 69.3713 130.564 68.2391L132.865 66.1881V96.2706C132.865 98.0831 134.183 99.5518 135.809 99.5518C137.435 99.5518 138.753 98.0831 138.753 96.2706V66.1881L141.054 68.2391C141.597 68.723 142.246 68.9583 142.891 68.9583C143.755 68.9583 144.611 68.537 145.192 67.7272C146.207 66.311 146.001 64.2469 144.731 63.1146Z" fill="#1B3D66"/>
<path d="M181.748 45.5171L174.663 39.2009C174.656 39.1939 174.647 39.1899 174.639 39.1829C174.515 39.0744 174.385 38.976 174.246 38.8907C174.243 38.8894 174.241 38.8872 174.238 38.8854C174.105 38.8041 173.965 38.7371 173.821 38.6789C173.801 38.6711 173.781 38.6623 173.762 38.6549C173.626 38.6041 173.485 38.5643 173.341 38.5359C173.316 38.5311 173.291 38.5271 173.266 38.5232C173.121 38.4987 172.975 38.4825 172.824 38.4825C172.674 38.4825 172.527 38.4991 172.383 38.5232C172.358 38.5276 172.332 38.5311 172.307 38.5359C172.163 38.5643 172.023 38.6041 171.887 38.6549C171.867 38.6623 171.848 38.6711 171.828 38.6789C171.683 38.7367 171.543 38.8041 171.41 38.8854C171.407 38.8872 171.405 38.8894 171.402 38.8907C171.264 38.976 171.133 39.0749 171.009 39.1829C171.002 39.1899 170.993 39.1939 170.985 39.2009L163.901 45.5171C162.631 46.6493 162.425 48.7139 163.441 50.1292C164.457 51.5436 166.309 51.7733 167.58 50.6415L169.881 48.5905V78.673C169.881 80.4856 171.199 81.9543 172.825 81.9543C174.451 81.9543 175.769 80.4856 175.769 78.673V48.5905L178.07 50.6415C178.613 51.1254 179.263 51.3608 179.908 51.3608C180.771 51.3608 181.627 50.9395 182.208 50.1296C183.223 48.7139 183.017 46.6493 181.748 45.5171Z" fill="#1B3D66"/>
</svg>
